<svg width="96" height="96" xmlns="http://www.w3.org/2000/svg" xmlns:xlink="http://www.w3.org/1999/xlink" xml:space="preserve" overflow="hidden"><g transform="translate(-592 -312)"><g><path d="M673.4 331.4C672.6 326.7 668.4 323.1 663.5 323.1 663 323.1 662.4 323.2 661.9 323.2 659.5 320.2 655.8 318.3 651.6 318.3 645.5 318.3 640.4 322.4 638.8 328 633.2 329.1 629 334 629 339.9 629 346.6 634.4 352 641 352L641 352C641 352 670.6 352 671 352 676.8 352 681.1 347.3 681.1 341.5 681.1 336.7 677.8 332.7 673.4 331.4ZM670.4 346 640.8 346C638.5 345.8 636.5 344.5 635.5 342.5 634.6 340.4 634.8 338 636.2 336.1 637.4 334.5 639.2 333.6 641.1 333.6 641.4 333.6 641.8 333.6 642.1 333.7L643.9 334 643.9 332C643.9 328.4 646.3 325.3 649.8 324.5 650.4 324.4 651 324.3 651.6 324.3 651.6 324.3 651.6 324.3 651.6 324.3 651.6 324.3 651.6 324.3 651.6 324.3 654.5 324.3 657.1 325.9 658.4 328.5L659 329.7 660.3 329.2C660.9 329 661.6 328.9 662.3 328.9 663.6 328.9 664.8 329.3 665.9 330 667.5 331.2 668.5 333.1 668.5 335.1L668.5 336.7 670.5 336.7C673.1 336.7 675.2 338.8 675.2 341.4 675.1 343.9 673 346 670.4 346Z" fill="#E97132" fill-rule="nonzero" fill-opacity="1"/><path d="M643.8 356 602.2 356C600.4 356 599 357.4 599 359.2L599 387.8C599 389.6 600.4 391 602.2 391 602.2 391 602.2 391 602.2 391L618 391 618 395 611 395 611 401 635 401 635 395 628 395 628 391 643.8 391C645.6 391 647 389.6 647 387.8L647 359.2C647 357.4 645.6 356 643.8 356ZM641 385 605 385 605 362 641 362 641 385Z" fill="#E97132" fill-rule="nonzero" fill-opacity="1"/><path d="M661.8 356C662.8 357.3 663.3 359 663.3 360.6 663.3 363.6 661.6 366.3 659 367.7L659 363.6 651.7 371 659 378.2 659 374.1C666.5 372.1 670.9 364.4 668.8 356.9 668.7 356.6 668.6 356.3 668.5 356L661.8 356Z" fill="#E97132" fill-rule="nonzero" fill-opacity="1"/><path d="M614.9 352C614.1 351 613.4 349 613.4 347.4 613.4 344.4 615.1 341.7 617.7 340.3L617.7 344.4 625 337 617.7 329.8 617.7 333.9C610.2 335.9 605.8 343.6 607.9 351.1 608 351.4 608.1 351.7 608.2 352L614.9 352Z" fill="#E97132" fill-rule="nonzero" fill-opacity="1"/></g></g></svg>