<svg width="78" height="78" xmlns="http://www.w3.org/2000/svg" xmlns:xlink="http://www.w3.org/1999/xlink" xml:space="preserve" overflow="hidden"><g transform="translate(-764 -620)"><g><path d="M829.812 661.438 824.206 651.688 824.206 651.281C824.694 637.794 814.131 626.5 800.644 626.013 787.156 625.525 775.862 636.006 775.375 649.494 775.375 650.062 775.375 650.713 775.375 651.281 775.375 659 778.869 666.231 784.963 670.944L784.963 691.5 810.638 691.5 810.638 681.75 814.619 681.75C819.9 681.75 824.206 677.444 824.206 672.162 824.206 672.081 824.206 672.081 824.206 672L824.206 667.125 827.781 667.125C829.894 666.881 831.763 664.444 829.812 661.438ZM779.031 643.156 783.5 643.156 783.5 639.906C782.606 639.256 782.444 637.956 783.094 637.062 783.744 636.169 785.044 636.006 785.938 636.656 786.831 637.306 786.994 638.606 786.344 639.5 786.263 639.662 786.1 639.825 785.938 639.906L785.938 643.156 789.188 643.156 789.188 648.844C790.081 649.494 790.244 650.794 789.594 651.688 788.944 652.581 787.644 652.744 786.75 652.094 785.856 651.444 785.694 650.144 786.344 649.25 786.425 649.088 786.588 648.925 786.75 648.844L786.75 645.594 778.3 645.594C778.544 644.781 778.706 643.969 779.031 643.156ZM801.619 656.888C800.481 656.888 799.588 655.994 799.588 654.856 799.588 654.775 799.588 654.612 799.588 654.531L797.475 652.419 794.062 655.831 794.062 661.844C794.956 662.494 795.119 663.794 794.469 664.688 793.819 665.581 792.519 665.744 791.625 665.094 790.731 664.444 790.569 663.144 791.219 662.25 791.3 662.088 791.463 661.925 791.625 661.844L791.625 661.031 786.181 661.031 782.362 656.562C781.225 656.644 780.25 655.831 780.169 654.694 780.088 653.556 780.9 652.581 782.037 652.5 783.175 652.419 784.15 653.231 784.231 654.369 784.231 654.531 784.231 654.775 784.231 654.938L787.319 658.594 791.625 658.594 791.625 654.856 795.769 650.713 793.25 648.112 793.25 633.406C792.356 632.756 792.194 631.456 792.844 630.562 793.494 629.669 794.794 629.506 795.688 630.156 796.581 630.806 796.744 632.106 796.094 633 796.013 633.162 795.85 633.325 795.688 633.406L795.688 635.844 802.188 635.844 802.188 641.531C803.081 642.181 803.244 643.481 802.594 644.375 801.944 645.269 800.644 645.431 799.75 644.781 798.856 644.131 798.694 642.831 799.344 641.938 799.425 641.775 799.588 641.612 799.75 641.531L799.75 638.281 795.688 638.281 795.688 647.138 801.375 652.825C801.456 652.825 801.537 652.825 801.619 652.825 802.756 652.825 803.65 653.719 803.65 654.856 803.65 655.994 802.756 656.888 801.619 656.888ZM811.531 640.475C810.394 640.475 809.5 639.581 809.5 638.444 809.5 638.362 809.5 638.362 809.5 638.281L806.25 635.356 806.25 629.425C807.062 629.669 807.875 629.994 808.688 630.319L808.688 634.3 811.125 636.494C811.287 636.494 811.369 636.494 811.531 636.494 812.669 636.494 813.562 637.388 813.562 638.525 813.562 639.662 812.669 640.475 811.531 640.475Z" fill="#E97132" fill-rule="nonzero" fill-opacity="1"/></g></g></svg>