<svg width="61" height="60" xmlns="http://www.w3.org/2000/svg" xmlns:xlink="http://www.w3.org/1999/xlink" xml:space="preserve" overflow="hidden"><g transform="translate(-888 -240)"><g><path d="M30 10C18.9375 10 10 18.9375 10 30 10 41.0625 18.9375 50 30 50 41.0625 50 50 41.0625 50 30 50 18.9375 41.0625 10 30 10ZM30 53.75C16.875 53.75 6.25 43.125 6.25 30 6.25 16.875 16.875 6.25 30 6.25 43.125 6.25 53.75 16.875 53.75 30 53.75 43.125 43.125 53.75 30 53.75Z" fill="#E97132" fill-rule="nonzero" fill-opacity="1" transform="matrix(1.01667 0 0 1 888 240)"/><path d="M42.5 25 35 25 35 17.5C35 16.125 33.875 15 32.5 15L27.5 15C26.125 15 25 16.125 25 17.5L25 25 17.5 25C16.125 25 15 26.125 15 27.5L15 32.5C15 33.875 16.125 35 17.5 35L25 35 25 42.5C25 43.875 26.125 45 27.5 45L32.5 45C33.875 45 35 43.875 35 42.5L35 35 42.5 35C43.875 35 45 33.875 45 32.5L45 27.5C45 26.125 43.875 25 42.5 25Z" fill="#E97132" fill-rule="nonzero" fill-opacity="1" transform="matrix(1.01667 0 0 1 888 240)"/></g></g></svg>