<svg width="69" height="68" xmlns="http://www.w3.org/2000/svg" xmlns:xlink="http://www.w3.org/1999/xlink" xml:space="preserve" overflow="hidden"><g transform="translate(-280 -548)"><g><g><g><g><path d="M336.25 561.458C337.032 561.458 337.667 562.093 337.667 562.875L337.667 591.208C337.667 591.991 337.032 592.625 336.25 592.625L327.75 592.625 327.75 600.539 320.606 593.394 320.191 592.979 293.75 592.979C292.968 592.979 292.333 592.345 292.333 591.562L292.333 562.875C292.333 562.093 292.968 561.458 293.75 561.458L336.25 561.458M336.25 560.042 293.75 560.042C292.185 560.042 290.917 561.31 290.917 562.875L290.917 591.562C290.917 593.127 292.185 594.396 293.75 594.396L319.604 594.396 329.167 603.958 329.167 594.042 336.25 594.042C337.815 594.042 339.083 592.773 339.083 591.208L339.083 562.875C339.083 561.31 337.815 560.042 336.25 560.042Z" fill="#E97132" fill-rule="nonzero" fill-opacity="1"/><path d="M328.458 577.042C328.458 578.215 327.507 579.167 326.333 579.167 325.16 579.167 324.208 578.215 324.208 577.042 324.208 575.868 325.16 574.917 326.333 574.917 327.507 574.917 328.458 575.868 328.458 577.042Z" fill="#E97132" fill-rule="nonzero" fill-opacity="1"/><path d="M317.125 577.042C317.125 578.215 316.174 579.167 315 579.167 313.826 579.167 312.875 578.215 312.875 577.042 312.875 575.868 313.826 574.917 315 574.917 316.174 574.917 317.125 575.868 317.125 577.042Z" fill="#E97132" fill-rule="nonzero" fill-opacity="1"/><path d="M305.792 577.042C305.792 578.215 304.84 579.167 303.667 579.167 302.493 579.167 301.542 578.215 301.542 577.042 301.542 575.868 302.493 574.917 303.667 574.917 304.84 574.917 305.792 575.868 305.792 577.042Z" fill="#E97132" fill-rule="nonzero" fill-opacity="1"/></g></g></g></g></g></svg>