<svg width="98" height="97" xmlns="http://www.w3.org/2000/svg" xmlns:xlink="http://www.w3.org/1999/xlink" xml:space="preserve" overflow="hidden"><g transform="translate(-1134 -209)"><g><g><g><g><path d="M1212 289 1212 229C1212 223.154 1197.06 220 1183 220 1168.94 220 1154 223.154 1154 229L1154 289C1154 294.846 1168.94 298 1183 298 1197.06 298 1212 294.846 1212 289ZM1183 222C1198.45 222 1210 225.7 1210 229 1210 232.3 1198.45 236 1183 236 1167.55 236 1156 232.3 1156 229 1156 225.7 1167.55 222 1183 222ZM1156 232.46C1160.53 236.08 1172.03 238 1183 238 1193.97 238 1205.47 236.08 1210 232.46L1210 249C1210 252.3 1198.45 256 1183 256 1167.55 256 1156 252.3 1156 249ZM1156 252.46C1160.53 256.08 1172.03 258 1183 258 1193.97 258 1205.47 256.08 1210 252.46L1210 269C1210 272.3 1198.45 276 1183 276 1167.55 276 1156 272.3 1156 269ZM1156 289 1156 272.46C1160.53 276.08 1172.03 278 1183 278 1193.97 278 1205.47 276.08 1210 272.46L1210 289C1210 292.3 1198.45 296 1183 296 1167.55 296 1156 292.3 1156 289Z" fill="#E97132" fill-rule="nonzero" fill-opacity="1"/><path d="M1205 246C1205 247.105 1204.1 248 1203 248 1201.9 248 1201 247.105 1201 246 1201 244.895 1201.9 244 1203 244 1204.1 244 1205 244.895 1205 246Z" fill="#E97132" fill-rule="nonzero" fill-opacity="1"/><path d="M1205 266C1205 267.105 1204.1 268 1203 268 1201.9 268 1201 267.105 1201 266 1201 264.895 1201.9 264 1203 264 1204.1 264 1205 264.895 1205 266Z" fill="#E97132" fill-rule="nonzero" fill-opacity="1"/><path d="M1205 286C1205 287.105 1204.1 288 1203 288 1201.9 288 1201 287.105 1201 286 1201 284.895 1201.9 284 1203 284 1204.1 284 1205 284.895 1205 286Z" fill="#E97132" fill-rule="nonzero" fill-opacity="1"/></g></g></g></g></g></svg>