<svg width="96" height="120" xmlns="http://www.w3.org/2000/svg" xmlns:xlink="http://www.w3.org/1999/xlink" xml:space="preserve" overflow="hidden"><g transform="translate(-1168 -36)"><g><g><g><g><path d="M17.5 47C20.8137 47 23.5 44.3137 23.5 41 23.5 37.6863 20.8137 35 17.5 35 14.1863 35 11.5 37.6863 11.5 41 11.5 44.3137 14.1863 47 17.5 47ZM17.5 37C19.7091 37 21.5 38.7909 21.5 41 21.5 43.2091 19.7091 45 17.5 45 15.2909 45 13.5 43.2091 13.5 41 13.5 38.7909 15.2909 37 17.5 37Z" fill="#E97132" fill-rule="nonzero" fill-opacity="1" transform="matrix(1 0 0 1.22917 1168 37)"/><path d="M49.5 35 71.5 35C72.6046 35 73.5 34.1046 73.5 33L73.5 17C73.5 15.8954 72.6046 15 71.5 15L49.5 15C48.3954 15 47.5 15.8954 47.5 17L47.5 33C47.5 34.1046 48.3954 35 49.5 35ZM49.5 33 49.5 26.455 55.481 26.455C55.911 26.4548 56.2927 26.1798 56.429 25.772L57 24.056C57.007 24.036 57.016 24.036 57.02 24.056L58.133 30.177C58.2127 30.6153 58.5728 30.9481 59.016 30.993 59.0493 30.995 59.0827 30.995 59.116 30.993 59.5249 30.9933 59.8929 30.7446 60.045 30.365L62.584 24.017C62.59 24.002 62.598 24.003 62.603 24.017L63.608 27.539C63.7593 28.0702 64.3125 28.3781 64.8437 28.2268 65.0075 28.1801 65.1566 28.0924 65.277 27.972L67.712 25.537 71.5 25.537 71.5 33ZM71.5 17 71.5 23.545 67.3 23.545C67.0348 23.5451 66.7805 23.6504 66.593 23.838L65.079 25.352C65.0767 25.3564 65.0713 25.3582 65.0669 25.3559 65.0652 25.355 65.0639 25.3537 65.063 25.352L63.717 20.64C63.5672 20.1084 63.0148 19.799 62.4832 19.9488 62.1842 20.0331 61.9413 20.2516 61.826 20.54L59.493 26.37C59.486 26.388 59.478 26.387 59.474 26.37L58.283 19.823C58.2032 19.3723 57.8275 19.0333 57.371 19 56.914 18.9624 56.4915 19.2452 56.352 19.682L54.761 24.453 49.5 24.453 49.5 17Z" fill="#E97132" fill-rule="nonzero" fill-opacity="1" transform="matrix(1 0 0 1.22917 1168 37)"/><path d="M84.5 46 38.5 46 38.5 46.94 33.779 45.024C29.3476 43.2253 24.2833 45.2067 22.249 49.535L21.559 51 8.5 45.344 8.5 29C8.5 28.4477 8.05229 28 7.5 28 6.94772 28 6.5 28.4477 6.5 29L6.5 80 8.5 80 8.5 69 38.5 69 38.5 70C38.5033 72.7601 40.7399 74.9967 43.5 75L87.5 75 87.5 80 89.5 80 89.5 51C89.4967 48.2399 87.2601 46.0033 84.5 46ZM38.5 67 8.5 67 8.5 47.523 38.5 60.523ZM38.5 58.344 23.4 51.8 24.064 50.388C25.6464 47.0222 29.5847 45.4815 33.031 46.88L38.5 49.1ZM87.5 73 43.5 73C41.8431 73 40.5 71.6569 40.5 70L40.5 48 84.5 48C86.1569 48 87.5 49.3431 87.5 51Z" fill="#E97132" fill-rule="nonzero" fill-opacity="1" transform="matrix(1 0 0 1.22917 1168 37)"/></g></g></g></g></g></svg>