<svg width="96" height="97" xmlns="http://www.w3.org/2000/svg" xmlns:xlink="http://www.w3.org/1999/xlink" xml:space="preserve" overflow="hidden"><g transform="translate(-1120 -416)"><g><g><g><g><path d="M1168 481C1175.18 480.992 1180.99 475.176 1181 468L1181 434C1181 426.82 1175.18 421 1168 421 1160.82 421 1155 426.82 1155 434L1155 468C1155.01 475.176 1160.82 480.992 1168 481ZM1157 434C1157 427.925 1161.92 423 1168 423 1174.08 423 1179 427.925 1179 434L1179 435 1171 435 1171 437 1179 437 1179 445 1171 445 1171 447 1179 447 1179 455 1171 455 1171 457 1179 457 1179 465 1171 465 1171 467 1179 467 1179 468C1179 474.075 1174.08 479 1168 479 1161.92 479 1157 474.075 1157 468Z" fill="#E97132" fill-rule="nonzero" fill-opacity="1"/><path d="M1169 505 1169 488.949C1180.18 488.412 1188.98 479.197 1189 468L1189 458 1187 458 1187 468C1187 478.493 1178.49 487 1168 487 1157.51 487 1149 478.493 1149 468L1149 458 1147 458 1147 468C1147.02 479.197 1155.82 488.412 1167 488.949L1167 505 1144 505 1144 507 1192 507 1192 505Z" fill="#E97132" fill-rule="nonzero" fill-opacity="1"/></g></g></g></g></g></svg>