<svg width="96" height="97" xmlns="http://www.w3.org/2000/svg" xmlns:xlink="http://www.w3.org/1999/xlink" xml:space="preserve" overflow="hidden"><g transform="translate(-980 -569)"><g><g><g><g><path d="M1008 612 1048 612 1048 614 1008 614Z" fill="#E97132" fill-rule="nonzero" fill-opacity="1"/><path d="M1008 604 1027 604 1027 606 1008 606Z" fill="#E97132" fill-rule="nonzero" fill-opacity="1"/><path d="M1008 620 1048 620 1048 622 1008 622Z" fill="#E97132" fill-rule="nonzero" fill-opacity="1"/><path d="M1008 628 1048 628 1048 630 1008 630Z" fill="#E97132" fill-rule="nonzero" fill-opacity="1"/><path d="M1008 636 1048 636 1048 638 1008 638Z" fill="#E97132" fill-rule="nonzero" fill-opacity="1"/><path d="M1008 644 1048 644 1048 646 1008 646Z" fill="#E97132" fill-rule="nonzero" fill-opacity="1"/><path d="M998 578 998 658 1058 658 1058 599.586 1036.41 578ZM1037.02 581.431 1054.57 598.983C1054.57 598.987 1054.57 598.993 1054.57 598.997 1054.57 598.999 1054.56 599 1054.56 599L1037 599 1037 581.438C1037 581.432 1037 581.428 1037.01 581.428 1037.01 581.428 1037.02 581.429 1037.02 581.431ZM1000 656 1000 580 1035 580 1035 601 1056 601 1056 656Z" fill="#E97132" fill-rule="nonzero" fill-opacity="1"/></g></g></g></g></g></svg>