<svg width="97" height="97" xmlns="http://www.w3.org/2000/svg" xmlns:xlink="http://www.w3.org/1999/xlink" xml:space="preserve" overflow="hidden"><g transform="translate(-1140 -208)"><g><g><g><g><path d="M1182 274 1151 274 1151 238 1178.38 238 1180.82 232 1149 232C1146.79 232 1145 233.791 1145 236L1145 276C1145 278.209 1146.79 280 1149 280L1182 280Z" fill="#E97132" fill-rule="nonzero" fill-opacity="1"/><path d="M1229 247 1225 247 1225 236C1225 233.791 1223.21 232 1221 232L1192 232 1192 238 1219 238 1219 274 1197 274 1194.35 280 1221 280C1223.21 280 1225 278.209 1225 276L1225 265 1229 265C1231.21 265 1233 263.209 1233 261L1233 251C1233 248.791 1231.21 247 1229 247Z" fill="#E97132" fill-rule="nonzero" fill-opacity="1"/><path d="M1188 255 1188 225 1171.69 264.97 1186 265 1186 289 1201 255 1188 255Z" fill="#E97132" fill-rule="nonzero" fill-opacity="1"/></g></g></g></g></g></svg>