<svg width="96" height="97" xmlns="http://www.w3.org/2000/svg" xmlns:xlink="http://www.w3.org/1999/xlink" xml:space="preserve" overflow="hidden"><g transform="translate(-1124 -489)"><g><g><g><g><path d="M1202.55 512.841C1191.94 511.996 1182.05 507.156 1174.88 499.3 1173.52 497.732 1171.16 497.558 1169.59 498.911 1169.45 499.031 1169.32 499.161 1169.2 499.3 1162.02 507.156 1152.13 511.996 1141.53 512.841 1139.56 513.026 1138.05 514.688 1138.07 516.667L1138.07 526.32C1138.07 547.306 1151.42 566.503 1169.95 578.382 1171.22 579.2 1172.85 579.2 1174.13 578.382 1192.66 566.5 1206.01 547.306 1206.01 526.32L1206.01 516.667C1206.02 514.688 1204.52 513.026 1202.55 512.841ZM1199.51 526.32C1199.51 543.02 1189.56 559.867 1172.89 571.396L1172.04 571.987 1171.18 571.396C1154.52 559.866 1144.57 543.015 1144.57 526.32L1144.57 519.069 1145.83 518.869C1155.25 517.38 1164.01 513.135 1171.02 506.669L1172.04 505.733 1173.05 506.669C1180.06 513.135 1188.82 517.38 1198.24 518.869L1199.51 519.069Z" fill="#E97132" fill-rule="nonzero" fill-opacity="1"/><path d="M1172.04 509.788C1165.09 515.86 1156.64 519.945 1147.57 521.612L1147.57 526.32C1147.57 541.747 1156.69 557.383 1172.04 568.33 1187.38 557.385 1196.51 541.748 1196.51 526.32L1196.51 521.612C1187.43 519.945 1178.98 515.86 1172.04 509.788ZM1169.47 548.833 1159.36 538.72 1162.79 535.284 1169.47 541.96 1183.14 528.288 1186.58 531.725Z" fill="#E97132" fill-rule="nonzero" fill-opacity="1"/></g></g></g></g></g></svg>