<svg width="44" height="43" xmlns="http://www.w3.org/2000/svg" xmlns:xlink="http://www.w3.org/1999/xlink" xml:space="preserve" overflow="hidden"><g transform="translate(-684 -305)"><g><g><g><g><path d="M700.823 333.146C700.773 332.927 700.647 332.732 700.467 332.596 700.081 332.307 699.644 332.093 699.179 331.967 698.468 331.761 697.713 331.761 697.002 331.967 696.536 332.093 696.098 332.307 695.711 332.597 695.531 332.733 695.405 332.928 695.354 333.147 695.351 333.162 695.348 333.177 695.346 333.191L694.629 338.314C694.596 338.553 694.763 338.774 695.002 338.808 695.022 338.811 695.042 338.812 695.062 338.812 695.28 338.812 695.465 338.652 695.495 338.436L696.208 333.341C696.212 333.324 696.222 333.308 696.236 333.297 696.533 333.074 696.871 332.91 697.23 332.813 697.791 332.647 698.389 332.647 698.95 332.813 699.308 332.909 699.645 333.074 699.942 333.297 699.956 333.307 699.965 333.323 699.969 333.34L700.682 338.435C700.712 338.65 700.897 338.811 701.114 338.811 701.135 338.811 701.156 338.81 701.176 338.807 701.415 338.773 701.582 338.552 701.548 338.313L700.833 333.191C700.831 333.176 700.827 333.161 700.823 333.146Z" fill="#E97132" fill-rule="nonzero" fill-opacity="1"/><path d="M698.086 331.375C699.053 331.375 699.836 330.591 699.836 329.625 699.836 328.659 699.053 327.875 698.086 327.875 697.12 327.875 696.336 328.659 696.336 329.625 696.336 330.591 697.12 331.375 698.086 331.375ZM698.086 328.75C698.57 328.75 698.961 329.142 698.961 329.625 698.961 330.108 698.57 330.5 698.086 330.5 697.603 330.5 697.211 330.108 697.211 329.625 697.211 329.142 697.603 328.75 698.086 328.75Z" fill="#E97132" fill-rule="nonzero" fill-opacity="1"/><path d="M692.987 333.146C692.937 332.927 692.81 332.732 692.63 332.596 692.245 332.307 691.809 332.093 691.344 331.967 690.989 331.867 690.622 331.815 690.253 331.812 689.885 331.816 689.519 331.867 689.165 331.966 688.699 332.093 688.261 332.306 687.875 332.596 687.695 332.732 687.568 332.927 687.518 333.146 687.514 333.161 687.511 333.177 687.509 333.19L686.794 338.314C686.76 338.553 686.927 338.774 687.166 338.808 687.186 338.811 687.207 338.813 687.227 338.812 687.445 338.812 687.63 338.652 687.66 338.436L688.372 333.341C688.376 333.324 688.386 333.308 688.4 333.297 688.697 333.074 689.034 332.91 689.393 332.813 689.673 332.733 689.962 332.691 690.253 332.688 690.544 332.691 690.834 332.732 691.114 332.812 691.472 332.909 691.809 333.073 692.105 333.296 692.12 333.307 692.13 333.322 692.133 333.34L692.846 338.435C692.876 338.65 693.061 338.811 693.279 338.811 693.299 338.811 693.32 338.81 693.34 338.807 693.579 338.773 693.746 338.552 693.713 338.313 693.713 338.313 693.713 338.313 693.713 338.313L692.996 333.191C692.994 333.176 692.991 333.161 692.987 333.146Z" fill="#E97132" fill-rule="nonzero" fill-opacity="1"/><path d="M690.25 331.375C691.216 331.375 692 330.591 692 329.625 692 328.659 691.216 327.875 690.25 327.875 689.284 327.875 688.5 328.659 688.5 329.625 688.5 330.591 689.284 331.375 690.25 331.375ZM690.25 328.75C690.733 328.75 691.125 329.142 691.125 329.625 691.125 330.108 690.733 330.5 690.25 330.5 689.767 330.5 689.375 330.108 689.375 329.625 689.375 329.142 689.767 328.75 690.25 328.75Z" fill="#E97132" fill-rule="nonzero" fill-opacity="1"/><path d="M699.399 334.438C699.399 334.196 699.203 334 698.961 334 698.72 334 698.524 334.196 698.524 334.438L698.524 338.375 697.649 338.375 697.649 334.438C697.649 334.196 697.453 334 697.211 334 696.97 334 696.774 334.196 696.774 334.438L696.774 345.356 697.649 345.356 697.649 339.25 698.524 339.25 698.524 345.356 699.399 345.356 699.399 335.75Z" fill="#E97132" fill-rule="nonzero" fill-opacity="1"/><path d="M691.562 334.438C691.562 334.196 691.367 334 691.125 334L691.125 334C690.883 334 690.688 334.196 690.688 334.438L690.688 336.446 692.031 340.125 688.469 340.125 689.812 336.445 689.812 336.368 689.812 334.438C689.812 334.196 689.617 334 689.375 334 689.133 334 688.938 334.196 688.938 334.438L688.938 336.291 687.219 341 688.938 341 688.938 345.375 689.812 345.375 689.812 341 690.688 341 690.688 345.375 691.562 345.375 691.562 341 693.282 341 691.562 336.29Z" fill="#E97132" fill-rule="nonzero" fill-opacity="1"/><path d="M716.573 333.146C716.523 332.927 716.397 332.732 716.217 332.596 715.831 332.307 715.394 332.093 714.929 331.967 714.218 331.761 713.463 331.761 712.752 331.967 712.286 332.093 711.848 332.307 711.461 332.597 711.281 332.733 711.155 332.928 711.104 333.147 711.101 333.162 711.098 333.177 711.096 333.191L710.379 338.314C710.346 338.553 710.513 338.774 710.752 338.808 710.772 338.811 710.792 338.812 710.812 338.812 711.03 338.812 711.215 338.652 711.245 338.436L711.958 333.341C711.962 333.324 711.972 333.308 711.986 333.297 712.283 333.074 712.621 332.91 712.98 332.813 713.541 332.647 714.139 332.647 714.7 332.813 715.058 332.909 715.395 333.074 715.692 333.297 715.706 333.307 715.715 333.323 715.719 333.34L716.432 338.435C716.462 338.65 716.647 338.811 716.864 338.811 716.885 338.811 716.906 338.81 716.926 338.807 717.165 338.773 717.332 338.552 717.298 338.313L716.583 333.191C716.581 333.176 716.577 333.161 716.573 333.146Z" fill="#E97132" fill-rule="nonzero" fill-opacity="1"/><path d="M713.836 331.375C714.803 331.375 715.586 330.591 715.586 329.625 715.586 328.659 714.803 327.875 713.836 327.875 712.87 327.875 712.086 328.659 712.086 329.625 712.086 330.591 712.87 331.375 713.836 331.375ZM713.836 328.75C714.32 328.75 714.711 329.142 714.711 329.625 714.711 330.108 714.32 330.5 713.836 330.5 713.353 330.5 712.961 330.108 712.961 329.625 712.961 329.142 713.353 328.75 713.836 328.75Z" fill="#E97132" fill-rule="nonzero" fill-opacity="1"/><path d="M708.737 333.146C708.687 332.927 708.56 332.732 708.38 332.596 707.995 332.307 707.559 332.093 707.094 331.967 706.383 331.761 705.628 331.761 704.917 331.967 704.451 332.093 704.013 332.307 703.627 332.597 703.447 332.733 703.32 332.928 703.27 333.147 703.266 333.162 703.263 333.177 703.261 333.191L702.544 338.314C702.51 338.553 702.677 338.774 702.916 338.808 702.936 338.811 702.957 338.813 702.977 338.812 703.195 338.812 703.38 338.652 703.41 338.436L704.123 333.341C704.127 333.324 704.136 333.308 704.151 333.297 704.448 333.074 704.785 332.91 705.144 332.813 705.706 332.647 706.303 332.647 706.865 332.813 707.223 332.909 707.56 333.074 707.856 333.297 707.871 333.307 707.88 333.323 707.884 333.34L708.597 338.435C708.627 338.651 708.812 338.811 709.03 338.812 709.05 338.812 709.071 338.81 709.091 338.807 709.33 338.774 709.497 338.553 709.464 338.313 709.464 338.313 709.464 338.313 709.464 338.313L708.746 333.191C708.744 333.176 708.741 333.161 708.737 333.146Z" fill="#E97132" fill-rule="nonzero" fill-opacity="1"/><path d="M706 327.875C705.034 327.875 704.25 328.659 704.25 329.625 704.25 330.591 705.034 331.375 706 331.375 706.966 331.375 707.75 330.591 707.75 329.625 707.75 328.659 706.966 327.875 706 327.875ZM706 330.5C705.517 330.5 705.125 330.108 705.125 329.625 705.125 329.142 705.517 328.75 706 328.75 706.483 328.75 706.875 329.142 706.875 329.625 706.875 330.108 706.483 330.5 706 330.5Z" fill="#E97132" fill-rule="nonzero" fill-opacity="1"/><path d="M715.149 334.438C715.149 334.196 714.953 334 714.711 334 714.47 334 714.274 334.196 714.274 334.438L714.274 338.375 713.399 338.375 713.399 334.438C713.399 334.196 713.203 334 712.961 334 712.72 334 712.524 334.196 712.524 334.438L712.524 345.356 713.399 345.356 713.399 339.25 714.274 339.25 714.274 345.356 715.149 345.356 715.149 335.75Z" fill="#E97132" fill-rule="nonzero" fill-opacity="1"/><path d="M707.312 334.438C707.312 334.196 707.117 334 706.875 334L706.875 334C706.633 334 706.438 334.196 706.438 334.438L706.438 336.446 707.781 340.125 704.219 340.125 705.562 336.445 705.562 336.368 705.562 334.438C705.562 334.196 705.367 334 705.125 334 704.883 334 704.688 334.196 704.688 334.438L704.688 336.291 702.969 341 704.688 341 704.688 345.375 705.562 345.375 705.562 341 706.438 341 706.438 345.375 707.312 345.375 707.312 341 709.032 341 707.312 336.29Z" fill="#E97132" fill-rule="nonzero" fill-opacity="1"/><path d="M700.823 313.896C700.773 313.677 700.647 313.482 700.467 313.346 700.081 313.057 699.644 312.843 699.179 312.717 698.468 312.511 697.713 312.511 697.002 312.717 696.536 312.843 696.098 313.057 695.711 313.347 695.531 313.483 695.405 313.678 695.354 313.897 695.351 313.912 695.348 313.927 695.346 313.941L694.629 319.064C694.596 319.303 694.763 319.524 695.002 319.558 695.022 319.561 695.042 319.562 695.062 319.562 695.28 319.562 695.465 319.402 695.495 319.186L696.208 314.091C696.212 314.074 696.222 314.058 696.236 314.047 696.533 313.824 696.871 313.66 697.23 313.563 697.791 313.397 698.389 313.397 698.95 313.563 699.308 313.659 699.645 313.824 699.942 314.047 699.956 314.057 699.965 314.073 699.969 314.09L700.682 319.185C700.712 319.4 700.897 319.561 701.114 319.561 701.135 319.561 701.156 319.56 701.176 319.557 701.415 319.523 701.582 319.302 701.548 319.063L700.833 313.941C700.831 313.926 700.827 313.911 700.823 313.896Z" fill="#E97132" fill-rule="nonzero" fill-opacity="1"/><path d="M698.086 312.125C699.053 312.125 699.836 311.341 699.836 310.375 699.836 309.409 699.053 308.625 698.086 308.625 697.12 308.625 696.336 309.409 696.336 310.375 696.336 311.341 697.12 312.125 698.086 312.125ZM698.086 309.5C698.57 309.5 698.961 309.892 698.961 310.375 698.961 310.858 698.57 311.25 698.086 311.25 697.603 311.25 697.211 310.858 697.211 310.375 697.211 309.892 697.603 309.5 698.086 309.5Z" fill="#E97132" fill-rule="nonzero" fill-opacity="1"/><path d="M697.649 316.5 697.649 315.188C697.649 314.946 697.453 314.75 697.211 314.75 696.97 314.75 696.774 314.946 696.774 315.188L696.774 326.106 697.649 326.106 697.649 320 698.524 320 698.524 326.106 699.399 326.106 699.399 316.5 699.399 315.188C699.399 314.946 699.203 314.75 698.961 314.75 698.72 314.75 698.524 314.946 698.524 315.188L698.524 319.125 697.649 319.125 697.649 316.5Z" fill="#E97132" fill-rule="nonzero" fill-opacity="1"/><path d="M716.573 313.896C716.523 313.677 716.397 313.482 716.217 313.346 715.831 313.057 715.394 312.843 714.929 312.717 714.218 312.511 713.463 312.511 712.752 312.717 712.286 312.843 711.848 313.057 711.461 313.347 711.281 313.483 711.155 313.678 711.104 313.897 711.101 313.912 711.098 313.927 711.096 313.941L710.379 319.064C710.346 319.303 710.513 319.524 710.752 319.558 710.772 319.561 710.792 319.562 710.812 319.562 711.03 319.562 711.215 319.402 711.245 319.186L711.958 314.091C711.962 314.074 711.972 314.058 711.986 314.047 712.283 313.824 712.621 313.66 712.98 313.563 713.541 313.397 714.139 313.397 714.7 313.563 715.058 313.659 715.395 313.824 715.692 314.047 715.706 314.057 715.715 314.073 715.719 314.09L716.432 319.185C716.462 319.4 716.647 319.561 716.864 319.561 716.885 319.561 716.906 319.56 716.926 319.557 717.165 319.523 717.332 319.302 717.298 319.063L716.583 313.941C716.581 313.926 716.577 313.911 716.573 313.896Z" fill="#E97132" fill-rule="nonzero" fill-opacity="1"/><path d="M713.836 312.125C714.803 312.125 715.586 311.341 715.586 310.375 715.586 309.409 714.803 308.625 713.836 308.625 712.87 308.625 712.086 309.409 712.086 310.375 712.086 311.341 712.87 312.125 713.836 312.125ZM713.836 309.5C714.32 309.5 714.711 309.892 714.711 310.375 714.711 310.858 714.32 311.25 713.836 311.25 713.353 311.25 712.961 310.858 712.961 310.375 712.961 309.892 713.353 309.5 713.836 309.5Z" fill="#E97132" fill-rule="nonzero" fill-opacity="1"/><path d="M708.737 313.896C708.687 313.677 708.56 313.482 708.38 313.346 707.995 313.057 707.559 312.843 707.094 312.717 706.383 312.511 705.628 312.511 704.917 312.717 704.451 312.843 704.013 313.057 703.627 313.347 703.447 313.483 703.32 313.678 703.27 313.897 703.266 313.912 703.263 313.927 703.261 313.941L702.544 319.064C702.51 319.303 702.677 319.524 702.916 319.558 702.936 319.561 702.957 319.563 702.977 319.562 703.195 319.562 703.38 319.402 703.41 319.186L704.123 314.091C704.127 314.074 704.136 314.058 704.151 314.047 704.448 313.824 704.785 313.66 705.144 313.563 705.706 313.397 706.303 313.397 706.865 313.563 707.223 313.659 707.56 313.824 707.856 314.047 707.871 314.057 707.88 314.073 707.884 314.09L708.597 319.185C708.627 319.401 708.812 319.561 709.03 319.562 709.05 319.562 709.071 319.56 709.091 319.557 709.33 319.524 709.497 319.303 709.464 319.063 709.464 319.063 709.464 319.063 709.464 319.063L708.746 313.941C708.744 313.926 708.741 313.911 708.737 313.896Z" fill="#E97132" fill-rule="nonzero" fill-opacity="1"/><path d="M706 312.125C706.966 312.125 707.75 311.341 707.75 310.375 707.75 309.409 706.966 308.625 706 308.625 705.034 308.625 704.25 309.409 704.25 310.375 704.25 311.341 705.034 312.125 706 312.125ZM706 309.5C706.483 309.5 706.875 309.892 706.875 310.375 706.875 310.858 706.483 311.25 706 311.25 705.517 311.25 705.125 310.858 705.125 310.375 705.125 309.892 705.517 309.5 706 309.5Z" fill="#E97132" fill-rule="nonzero" fill-opacity="1"/><path d="M713.399 316.5 713.399 315.188C713.399 314.946 713.203 314.75 712.961 314.75 712.72 314.75 712.524 314.946 712.524 315.188L712.524 326.106 713.399 326.106 713.399 320 714.274 320 714.274 326.106 715.149 326.106 715.149 316.5 715.149 315.188C715.149 314.946 714.953 314.75 714.711 314.75 714.47 314.75 714.274 314.946 714.274 315.188L714.274 319.125 713.399 319.125 713.399 316.5Z" fill="#E97132" fill-rule="nonzero" fill-opacity="1"/><path d="M703.57 321.75 704.688 321.75 704.688 326.125 705.562 326.125 705.562 321.75 706.438 321.75 706.438 326.125 707.312 326.125 707.312 321.75 709.032 321.75 707.312 317.04 707.312 315.188C707.312 314.946 707.117 314.75 706.875 314.75 706.633 314.75 706.438 314.946 706.438 315.188L706.438 317.196 707.781 320.875 704.219 320.875 705.562 317.195 705.562 317.118 705.562 315.188C705.562 314.946 705.367 314.75 705.125 314.75 704.883 314.75 704.688 314.946 704.688 315.188L704.688 317.041 702.969 321.75Z" fill="#E97132" fill-rule="nonzero" fill-opacity="1"/><path d="M724.487 333.146C724.437 332.927 724.31 332.732 724.13 332.596 723.745 332.307 723.309 332.093 722.844 331.967 722.133 331.761 721.378 331.761 720.667 331.967 720.201 332.093 719.763 332.307 719.377 332.597 719.197 332.733 719.07 332.928 719.02 333.147 719.016 333.162 719.013 333.177 719.011 333.191L718.294 338.314C718.26 338.553 718.427 338.774 718.666 338.808 718.686 338.811 718.707 338.813 718.727 338.812 718.945 338.812 719.13 338.652 719.16 338.436L719.873 333.341C719.877 333.324 719.886 333.308 719.901 333.297 720.198 333.074 720.535 332.91 720.894 332.813 721.456 332.647 722.053 332.647 722.615 332.813 722.973 332.909 723.31 333.074 723.606 333.297 723.621 333.307 723.63 333.323 723.634 333.34L724.347 338.435C724.377 338.651 724.562 338.811 724.78 338.812 724.8 338.812 724.821 338.81 724.841 338.807 725.08 338.774 725.247 338.553 725.214 338.313 725.214 338.313 725.214 338.313 725.214 338.313L724.496 333.191C724.494 333.176 724.491 333.161 724.487 333.146Z" fill="#E97132" fill-rule="nonzero" fill-opacity="1"/><path d="M721.75 331.375C722.716 331.375 723.5 330.591 723.5 329.625 723.5 328.659 722.716 327.875 721.75 327.875 720.784 327.875 720 328.659 720 329.625 720 330.591 720.784 331.375 721.75 331.375ZM721.75 328.75C722.233 328.75 722.625 329.142 722.625 329.625 722.625 330.108 722.233 330.5 721.75 330.5 721.267 330.5 720.875 330.108 720.875 329.625 720.875 329.142 721.267 328.75 721.75 328.75Z" fill="#E97132" fill-rule="nonzero" fill-opacity="1"/><path d="M723.062 334.438C723.062 334.196 722.867 334 722.625 334L722.625 334C722.383 334 722.188 334.196 722.188 334.438L722.188 336.446 723.531 340.125 719.969 340.125 721.312 336.445 721.312 336.368 721.312 334.438C721.312 334.196 721.117 334 720.875 334 720.633 334 720.438 334.196 720.438 334.438L720.438 336.291 718.719 341 720.438 341 720.438 345.375 721.312 345.375 721.312 341 722.188 341 722.188 345.375 723.062 345.375 723.062 341 724.782 341 723.062 336.29Z" fill="#E97132" fill-rule="nonzero" fill-opacity="1"/></g></g></g></g></g></svg>