<svg width="48" height="45" xmlns="http://www.w3.org/2000/svg" xmlns:xlink="http://www.w3.org/1999/xlink" xml:space="preserve" overflow="hidden"><g transform="translate(-344 -100)"><g><g><g><g><path d="M33.5114 7.5 35.625 7.5 35.625 3.75 9.375 3.75 9.375 7.5 11.4544 7.5C12.6136 12.6173 15.9277 19.5 19.5769 22.5061 15.9267 25.5103 12.75 32.2659 11.625 37.5L9.375 37.5 9.375 41.25 35.625 41.25 35.625 37.5 33.5086 37.5C32.3733 32.407 29.0625 25.5356 25.3763 22.5061 29.0658 19.4737 32.3784 12.5962 33.5114 7.5ZM10.3125 4.6875 34.6875 4.6875 34.6875 6.5625 10.3125 6.5625ZM34.6875 40.3125 10.3125 40.3125 10.3125 38.4375 13.3303 38.4375 13.3303 38.4483 31.8084 38.4483 31.8061 38.4375 34.6875 38.4375ZM14.4998 37.5C14.9872 35.5681 15.6515 33.6852 16.4841 31.875L28.5863 31.875C29.4422 33.6818 30.1265 35.5651 30.63 37.5ZM24.3347 22.125C24.1246 22.2763 24.0769 22.5692 24.2282 22.7793 24.2577 22.8203 24.2937 22.8562 24.3347 22.8858 27.9844 25.5173 31.3617 32.3738 32.5514 37.5L31.5938 37.5C31.0484 35.3286 30.2819 33.2189 29.3062 31.2038L29.1783 30.9375 15.885 30.9375 15.7589 31.2084C14.8106 33.2261 14.067 35.3339 13.5394 37.5L12.578 37.5C13.74 32.3325 17.0433 25.4616 20.617 22.8867 20.8271 22.7355 20.8748 22.4425 20.7235 22.2324 20.694 22.1914 20.658 22.1555 20.617 22.1259 17.0048 19.523 13.6261 12.6562 12.412 7.5L32.5547 7.5C31.3673 12.6291 27.9909 19.4916 24.3347 22.125Z" fill="#FFC000" fill-rule="nonzero" fill-opacity="1" transform="matrix(1.02222 0 0 1 345 100)"/></g></g></g></g></g></svg>