<svg width="54" height="54" xmlns="http://www.w3.org/2000/svg" xmlns:xlink="http://www.w3.org/1999/xlink" xml:space="preserve" overflow="hidden"><g transform="translate(-70 -294)"><g><g><g><g><path d="M119.132 311.387 109.646 311.387 109.646 307.743 101.593 299.693 85.3542 299.693 85.3542 311.387 75.8683 311.387C74.3992 311.387 73.2083 312.578 73.2083 314.047L73.2083 331.814C73.2083 333.283 74.3992 334.474 75.8683 334.474L85.3542 334.474 85.3542 343.859 109.646 343.859 109.646 334.474 119.132 334.474C120.601 334.474 121.792 333.283 121.792 331.814L121.792 314.047C121.792 312.578 120.601 311.387 119.132 311.387ZM101.926 301.587 107.752 307.412C107.754 307.415 107.754 307.418 107.752 307.42 107.751 307.421 107.749 307.422 107.748 307.422L101.917 307.422 101.917 301.591C101.917 301.588 101.919 301.585 101.922 301.585 101.924 301.585 101.925 301.586 101.926 301.587ZM86.4583 300.797 100.812 300.797 100.812 308.526 108.542 308.526 108.542 316.255 86.4583 316.255ZM108.542 342.755 86.4583 342.755 86.4583 327.297 108.542 327.297ZM120.688 331.814C120.688 332.673 119.991 333.37 119.132 333.37L109.646 333.37 109.646 326.193 85.3542 326.193 85.3542 333.37 75.8683 333.37C75.009 333.37 74.3125 332.673 74.3125 331.814L74.3125 314.047C74.3125 313.188 75.009 312.491 75.8683 312.491L85.3542 312.491 85.3542 317.359 109.646 317.359 109.646 312.491 119.132 312.491C119.991 312.491 120.688 313.188 120.688 314.047Z" fill="#E97132" fill-rule="nonzero" fill-opacity="1"/><path d="M79.8333 316.807C79.8333 317.417 79.339 317.911 78.7292 317.911 78.1194 317.911 77.625 317.417 77.625 316.807 77.625 316.197 78.1194 315.703 78.7292 315.703 79.339 315.703 79.8333 316.197 79.8333 316.807Z" fill="#E97132" fill-rule="nonzero" fill-opacity="1"/><path d="M91.9792 332.266 103.021 332.266 103.021 333.37 91.9792 333.37Z" fill="#E97132" fill-rule="nonzero" fill-opacity="1"/><path d="M91.9792 336.682 103.021 336.682 103.021 337.786 91.9792 337.786Z" fill="#E97132" fill-rule="nonzero" fill-opacity="1"/></g></g></g></g></g></svg>