<svg width="72" height="74" xmlns="http://www.w3.org/2000/svg" xmlns:xlink="http://www.w3.org/1999/xlink" xml:space="preserve" overflow="hidden"><g transform="translate(-909 -94)"><g><g><g><g><path d="M40.3073 12.2031C40.323 10.7958 39.1998 9.63973 37.7927 9.61458L37.7188 9.61458C36.2891 9.61458 35.1302 10.7735 35.1302 12.2031 35.1302 13.6327 36.2891 14.7917 37.7188 14.7917 39.1484 14.7917 40.3073 13.6327 40.3073 12.2031ZM38.8281 12.1913C38.8346 12.804 38.3433 13.3059 37.7307 13.3124 37.118 13.319 36.616 12.8276 36.6095 12.215 36.6029 11.6023 37.0943 11.1003 37.707 11.0938 37.7109 11.0938 37.7148 11.0938 37.7188 11.0938L37.7668 11.0938C38.3624 11.1051 38.8368 11.5957 38.8281 12.1913Z" fill="#E97132" fill-rule="nonzero" fill-opacity="1" transform="matrix(1 0 0 1.01408 910 95)"/><path d="M37.7188 38.8148 37.7188 38.4583 53.9896 38.4583 53.9896 39.9375 38.8392 39.9375 37.7188 38.8148Z" fill="#E97132" fill-rule="nonzero" fill-opacity="1" transform="matrix(1 0 0 1.01408 910 95)"/><path d="M53.9896 48.8125 42.0253 48.8125 41.5343 47.3333 53.9896 47.3333 53.9896 48.8125Z" fill="#E97132" fill-rule="nonzero" fill-opacity="1" transform="matrix(1 0 0 1.01408 910 95)"/><path d="M28.5058 29.5833 53.9896 29.5833 53.9896 31.0625 29.982 31.0625 28.5058 29.5833Z" fill="#E97132" fill-rule="nonzero" fill-opacity="1" transform="matrix(1 0 0 1.01408 910 95)"/><path d="M6.31752 19.1641C5.73162 19.832 5.79784 20.8483 6.46544 21.4346L31.8243 46.8896 39.9375 49.5669 37.2572 41.4906 11.8577 16.0408 11.8333 16.0135C11.1647 15.3599 10.0929 15.3722 9.43938 16.0407 9.43938 16.0407 9.4393 16.0408 9.4393 16.0408ZM36.9747 47.0316 32.8804 45.6804C32.1453 44.7046 32.3405 43.3175 33.3163 42.5825 34.1477 41.9563 35.3033 41.9943 36.0917 42.674L37.3985 46.6108ZM30.9885 43.9571 11.4539 24.3486 14.7591 21.0426 34.3581 40.6823C32.5835 40.7992 31.156 42.1866 30.9885 43.9571ZM7.4158 20.1573 10.4829 17.0844C10.5254 17.0368 10.5862 17.0099 10.65 17.0104 10.7054 17.0103 10.7586 17.0321 10.7979 17.0711L13.7163 19.9961 10.4111 23.3006 7.51195 20.3911 7.47793 20.3563 7.44169 20.3245C7.3931 20.2827 7.38213 20.2118 7.4158 20.1573Z" fill="#E97132" fill-rule="nonzero" fill-opacity="1" transform="matrix(1 0 0 1.01408 910 95)"/><path d="M56.9479 11.0782 45.8542 11.0782 45.8542 9.59905C45.8517 7.55773 44.1976 5.90358 42.1562 5.90114L33.2812 5.90114C31.2401 5.90399 29.5862 7.55795 29.5833 9.59905L29.5833 11.0782 18.4896 11.0782C16.8558 11.0782 15.5312 12.4027 15.5312 14.0366L15.5312 16.5844 17.0104 18.0636 17.0104 14.0366C17.0104 13.2196 17.6726 12.5574 18.4896 12.5574L26.625 12.5574 26.625 19.9688 48.8125 19.9688 48.8125 12.5574 56.9479 12.5574C57.7649 12.5574 58.4271 13.2196 58.4271 14.0366L58.4271 62.125C58.4271 62.9419 57.7649 63.6042 56.9479 63.6042L18.4896 63.6042C17.6726 63.6042 17.0104 62.9419 17.0104 62.125L17.0104 35.1657 15.5312 33.6814 15.5312 62.125C15.5312 63.7588 16.8558 65.0833 18.4896 65.0833L56.9479 65.0833C58.5817 65.0833 59.9062 63.7588 59.9062 62.125L59.9062 14.0366C59.9042 12.4036 58.5809 11.0803 56.9479 11.0782ZM47.3333 18.4896 28.1042 18.4896 28.1042 12.5574 31.0625 12.5574 31.0625 9.59905C31.0625 8.37364 32.0558 7.3803 33.2812 7.3803L42.1562 7.3803C43.3817 7.3803 44.375 8.37364 44.375 9.59905L44.375 12.5574 47.3333 12.5574Z" fill="#E97132" fill-rule="nonzero" fill-opacity="1" transform="matrix(1 0 0 1.01408 910 95)"/></g></g></g></g></g></svg>